<svg width="96" height="99" viewBox="0 0 96 99" fill="none" xmlns="http://www.w3.org/2000/svg">
<path d="M50.8226 66.3637H44.2349C38.7429 66.3637 34.292 61.9128 34.292 56.4207V49.683C34.292 47.8826 32.8326 46.4187 31.0276 46.4187H24.2899C18.7978 46.4187 14.3469 41.9678 14.3469 36.4757V29.888C14.3469 24.396 18.7978 19.945 24.2899 19.945H28.1543C29.5728 19.945 30.723 21.0953 30.723 22.5137C30.723 23.9322 29.5728 25.0825 28.1543 25.0825H24.2899C21.6348 25.0825 19.4798 27.2374 19.4798 29.8925V36.4803C19.4798 39.1354 21.6348 41.2904 24.2899 41.2904H31.0276C35.665 41.2904 39.4294 45.0502 39.4294 49.6921V56.4298C39.4294 59.0849 41.5844 61.2399 44.2395 61.2399H50.8272C53.4823 61.2399 55.6373 59.0849 55.6373 56.4298V51.447C55.6373 47.2416 54.0006 43.2862 51.0272 40.3129L40.416 29.697C36.4742 25.7508 34.3011 20.5088 34.3011 14.9304V9.94296C34.3011 4.45092 38.752 0 44.244 0H50.8317C56.3238 0 60.7747 4.45092 60.7747 9.94296V16.6807C60.7747 18.4811 62.2341 19.945 64.039 19.945H70.7768C76.2688 19.945 80.7197 24.396 80.7197 29.888V36.4757C80.7197 41.9678 76.2688 46.4187 70.7768 46.4187H66.9169C65.4984 46.4187 64.3481 45.2684 64.3481 43.85C64.3481 42.4315 65.4984 41.2813 66.9169 41.2813H70.7768C73.4319 41.2813 75.5868 39.1263 75.5868 36.4712V29.8834C75.5868 27.2283 73.4319 25.0734 70.7768 25.0734H64.0299C59.3926 25.0734 55.6327 21.3135 55.6327 16.6762V9.94296C55.6327 7.28787 53.4777 5.13288 50.8226 5.13288H44.2349C41.5798 5.13288 39.4248 7.28332 39.4248 9.94296V14.9258C39.4248 19.1312 41.0615 23.0866 44.0349 26.0599L54.6462 36.6712C58.5924 40.6129 60.7611 45.8595 60.7611 51.4379V56.4207C60.7656 61.9082 56.3147 66.3637 50.8226 66.3637Z" fill="#069893"/>
<path d="M2.13128 92.5211V74.5464H5.57215L13.2242 87.2314H11.4011L18.9248 74.5464H22.34L22.3913 92.5211H18.4882L18.4626 80.5294H19.1816L13.1729 90.6209H11.2984L5.1613 80.5294H6.03436V92.5211H2.13128ZM33.2295 92.7265C31.6546 92.7265 30.268 92.4183 29.0696 91.8021C27.8884 91.1858 26.9726 90.347 26.3221 89.2856C25.6716 88.2071 25.3463 86.9831 25.3463 85.6136C25.3463 84.227 25.663 83.003 26.2964 81.9417C26.9469 80.8632 27.8285 80.0244 28.9413 79.4252C30.054 78.8089 31.3122 78.5008 32.7159 78.5008C34.0683 78.5008 35.2837 78.7918 36.3622 79.3739C37.4578 79.9388 38.3223 80.7605 38.9557 81.839C39.5891 82.9003 39.9058 84.1757 39.9058 85.665C39.9058 85.8191 39.8973 85.9988 39.8801 86.2042C39.863 86.3925 39.8459 86.5723 39.8288 86.7435H28.6074V84.4068H37.7232L36.1825 85.1001C36.1825 84.3811 36.037 83.7563 35.746 83.2256C35.4549 82.6949 35.0526 82.284 34.5391 81.993C34.0255 81.6849 33.4264 81.5308 32.7416 81.5308C32.0569 81.5308 31.4491 81.6849 30.9185 81.993C30.4049 82.284 30.0026 82.7035 29.7116 83.2513C29.4206 83.7819 29.2751 84.4153 29.2751 85.1514V85.7677C29.2751 86.5209 29.4377 87.1886 29.763 87.7706C30.1053 88.3355 30.5761 88.7721 31.1752 89.0802C31.7915 89.3712 32.5105 89.5167 33.3322 89.5167C34.0683 89.5167 34.7103 89.4054 35.2581 89.1829C35.823 88.9604 36.3366 88.6265 36.7988 88.1815L38.93 90.4925C38.2966 91.2115 37.5006 91.7678 36.542 92.1616C35.5833 92.5382 34.4792 92.7265 33.2295 92.7265ZM48.5044 92.7265C47.2033 92.7265 46.0307 92.4355 44.9865 91.8534C43.9422 91.2543 43.112 90.424 42.4957 89.3626C41.8965 88.3013 41.597 87.0516 41.597 85.6136C41.597 84.1585 41.8965 82.9003 42.4957 81.839C43.112 80.7776 43.9422 79.9559 44.9865 79.3739C46.0307 78.7918 47.2033 78.5008 48.5044 78.5008C49.6684 78.5008 50.687 78.7576 51.5601 79.2711C52.4331 79.7847 53.1093 80.5636 53.5886 81.6079C54.068 82.6521 54.3076 83.9874 54.3076 85.6136C54.3076 87.2228 54.0765 88.5581 53.6143 89.6194C53.1521 90.6637 52.4845 91.4426 51.6114 91.9561C50.7555 92.4697 49.7198 92.7265 48.5044 92.7265ZM49.1977 89.4397C49.8482 89.4397 50.4388 89.2856 50.9695 88.9775C51.5002 88.6693 51.9196 88.2328 52.2277 87.6679C52.553 87.0859 52.7156 86.4011 52.7156 85.6136C52.7156 84.8091 52.553 84.1243 52.2277 83.5594C51.9196 82.9945 51.5002 82.5579 50.9695 82.2498C50.4388 81.9417 49.8482 81.7876 49.1977 81.7876C48.53 81.7876 47.9309 81.9417 47.4002 82.2498C46.8695 82.5579 46.4416 82.9945 46.1163 83.5594C45.8082 84.1243 45.6541 84.8091 45.6541 85.6136C45.6541 86.4011 45.8082 87.0859 46.1163 87.6679C46.4416 88.2328 46.8695 88.6693 47.4002 88.9775C47.9309 89.2856 48.53 89.4397 49.1977 89.4397ZM52.8183 92.5211V89.6965L52.8953 85.588L52.6385 81.5051V73.4679H56.6443V92.5211H52.8183ZM60.3518 92.5211V78.7062H64.3576V92.5211H60.3518ZM62.3547 76.7804C61.6186 76.7804 61.0194 76.5664 60.5572 76.1384C60.095 75.7104 59.8639 75.1798 59.8639 74.5464C59.8639 73.913 60.095 73.3823 60.5572 72.9543C61.0194 72.5264 61.6186 72.3124 62.3547 72.3124C63.0908 72.3124 63.69 72.5178 64.1522 72.9286C64.6144 73.3224 64.8455 73.8359 64.8455 74.4693C64.8455 75.137 64.6144 75.6933 64.1522 76.1384C63.7071 76.5664 63.1079 76.7804 62.3547 76.7804ZM74.7516 92.7265C73.2623 92.7265 71.9356 92.4269 70.7715 91.8277C69.6074 91.2115 68.6916 90.3641 68.024 89.2856C67.3734 88.2071 67.0482 86.9831 67.0482 85.6136C67.0482 84.227 67.3734 83.003 68.024 81.9417C68.6916 80.8632 69.6074 80.0244 70.7715 79.4252C71.9356 78.8089 73.2623 78.5008 74.7516 78.5008C76.2067 78.5008 77.4735 78.8089 78.552 79.4252C79.6305 80.0244 80.4265 80.8889 80.9401 82.0187L77.833 83.6878C77.4735 83.0373 77.0199 82.5579 76.4721 82.2498C75.9414 81.9417 75.3593 81.7876 74.7259 81.7876C74.0412 81.7876 73.4249 81.9417 72.8771 82.2498C72.3293 82.5579 71.8928 82.9945 71.5675 83.5594C71.2594 84.1243 71.1053 84.8091 71.1053 85.6136C71.1053 86.4182 71.2594 87.103 71.5675 87.6679C71.8928 88.2328 72.3293 88.6693 72.8771 88.9775C73.4249 89.2856 74.0412 89.4397 74.7259 89.4397C75.3593 89.4397 75.9414 89.2942 76.4721 89.0032C77.0199 88.695 77.4735 88.2071 77.833 87.5395L80.9401 89.2343C80.4265 90.347 79.6305 91.2115 78.552 91.8277C77.4735 92.4269 76.2067 92.7265 74.7516 92.7265ZM87.8942 92.7265C86.713 92.7265 85.5746 92.5895 84.479 92.3156C83.4005 92.0246 82.5446 91.6651 81.9112 91.2372L83.2465 88.3612C83.8799 88.7549 84.6245 89.0802 85.4805 89.337C86.3535 89.5766 87.2095 89.6965 88.0483 89.6965C88.9727 89.6965 89.6232 89.5852 89.9998 89.3626C90.3935 89.1401 90.5904 88.832 90.5904 88.4382C90.5904 88.113 90.4363 87.8733 90.1282 87.7192C89.8372 87.5481 89.4435 87.4197 88.947 87.3341C88.4506 87.2485 87.9028 87.1629 87.3036 87.0773C86.7216 86.9917 86.131 86.8804 85.5318 86.7435C84.9327 86.5894 84.3849 86.3669 83.8884 86.0758C83.392 85.7848 82.9897 85.3911 82.6816 84.8947C82.3905 84.3982 82.245 83.7563 82.245 82.9688C82.245 82.0957 82.4932 81.3254 82.9897 80.6578C83.5033 79.9901 84.2394 79.468 85.198 79.0914C86.1567 78.6977 87.3036 78.5008 88.6389 78.5008C89.5804 78.5008 90.5391 78.6035 91.5148 78.8089C92.4906 79.0144 93.3037 79.3139 93.9542 79.7077L92.619 82.5579C91.9514 82.1642 91.2752 81.8989 90.5904 81.7619C89.9228 81.6079 89.2723 81.5308 88.6389 81.5308C87.7487 81.5308 87.0982 81.6507 86.6873 81.8903C86.2765 82.13 86.0711 82.4381 86.0711 82.8147C86.0711 83.1571 86.2166 83.4139 86.5076 83.5851C86.8157 83.7563 87.218 83.8932 87.7145 83.9959C88.2109 84.0986 88.7501 84.1928 89.3322 84.2784C89.9313 84.3469 90.5305 84.4581 91.1297 84.6122C91.7288 84.7663 92.2681 84.9888 92.7474 85.2798C93.2438 85.5537 93.6461 85.9389 93.9542 86.4353C94.2624 86.9147 94.4165 87.5481 94.4165 88.3355C94.4165 89.1915 94.1597 89.9532 93.6461 90.6209C93.1325 91.2714 92.3879 91.785 91.4121 92.1616C90.4535 92.5382 89.2808 92.7265 87.8942 92.7265Z" fill="#069893"/>
</svg>
